osim_states
version=1
nRows=4
nColumns=185
inDegrees=yes

# SIMM Motion File Header:
name osim_states
datacolumns 185
datarows 4
otherdata 1
range 0.06116182 0.06181838
endheader
time	platform_rx	platform_ry	platform_rz	platform_ty	pelvis_tilt	pelvis_list	pelvis_rotation	pelvis_tx	pelvis_ty	pelvis_tz	hip_flexion_r	hip_adduction_r	hip_rotation_r	knee_angle_r	patella_r_constrained_knee_angle	ankle_angle_r	subtalar_angle_r	mtp_angle_r	hip_flexion_l	hip_adduction_l	hip_rotation_l	knee_angle_l	patella_l_constrained_knee_angle	ankle_angle_l	subtalar_angle_l	mtp_angle_l	lumbar_extension	lumbar_bending	lumbar_rotation	arm_flex_r	arm_add_r	arm_rot_r	elbow_flex_r	pro_sup_r	wrist_flex_r	wrist_dev_r	arm_flex_l	arm_add_l	arm_rot_l	elbow_flex_l	pro_sup_l	wrist_flex_l	wrist_dev_l	platform_rx_u	platform_ry_u	platform_rz_u	platform_ty_u	pelvis_tilt_u	pelvis_list_u	pelvis_rotation_u	pelvis_tx_u	pelvis_ty_u	pelvis_tz_u	hip_flexion_r_u	hip_adduction_r_u	hip_rotation_r_u	knee_angle_r_u	patella_r_constrained_knee_angle_u	ankle_angle_r_u	subtalar_angle_r_u	mtp_angle_r_u	hip_flexion_l_u	hip_adduction_l_u	hip_rotation_l_u	knee_angle_l_u	patella_l_constrained_knee_angle_u	ankle_angle_l_u	subtalar_angle_l_u	mtp_angle_l_u	lumbar_extension_u	lumbar_bending_u	lumbar_rotation_u	arm_flex_r_u	arm_add_r_u	arm_rot_r_u	elbow_flex_r_u	pro_sup_r_u	wrist_flex_r_u	wrist_dev_r_u	arm_flex_l_u	arm_add_l_u	arm_rot_l_u	elbow_flex_l_u	pro_sup_l_u	wrist_flex_l_u	wrist_dev_l_u	glut_med1_r.activation	glut_med1_r.fiber_length	glut_med2_r.activation	glut_med2_r.fiber_length	glut_med3_r.activation	glut_med3_r.fiber_length	glut_min1_r.activation	glut_min1_r.fiber_length	glut_min2_r.activation	glut_min2_r.fiber_length	glut_min3_r.activation	glut_min3_r.fiber_length	semimem_r.activation	semimem_r.fiber_length	semiten_r.activation	semiten_r.fiber_length	bifemlh_r.activation	bifemlh_r.fiber_length	bifemsh_r.activation	bifemsh_r.fiber_length	sar_r.activation	sar_r.fiber_length	add_long_r.activation	add_long_r.fiber_length	add_brev_r.activation	add_brev_r.fiber_length	add_mag1_r.activation	add_mag1_r.fiber_length	add_mag2_r.activation	add_mag2_r.fiber_length	add_mag3_r.activation	add_mag3_r.fiber_length	tfl_r.activation	tfl_r.fiber_length	pect_r.activation	pect_r.fiber_length	grac_r.activation	grac_r.fiber_length	glut_max1_r.activation	glut_max1_r.fiber_length	glut_max2_r.activation	glut_max2_r.fiber_length	glut_max3_r.activation	glut_max3_r.fiber_length	iliacus_r.activation	iliacus_r.fiber_length	psoas_r.activation	psoas_r.fiber_length	quad_fem_r.activation	quad_fem_r.fiber_length	gem_r.activation	gem_r.fiber_length	peri_r.activation	peri_r.fiber_length	rect_fem_r.activation	rect_fem_r.fiber_length	vas_med_r.activation	vas_med_r.fiber_length	vas_int_r.activation	vas_int_r.fiber_length	vas_lat_r.activation	vas_lat_r.fiber_length	med_gas_r.activation	med_gas_r.fiber_length	lat_gas_r.activation	lat_gas_r.fiber_length	soleus_r.activation	soleus_r.fiber_length	tib_post_r.activation	tib_post_r.fiber_length	flex_dig_r.activation	flex_dig_r.fiber_length	flex_hal_r.activation	flex_hal_r.fiber_length	tib_ant_r.activation	tib_ant_r.fiber_length	per_brev_r.activation	per_brev_r.fiber_length	per_long_r.activation	per_long_r.fiber_length	per_tert_r.activation	per_tert_r.fiber_length	ext_dig_r.activation	ext_dig_r.fiber_length	ext_hal_r.activation	ext_hal_r.fiber_length	ercspn_r.activation	ercspn_r.fiber_length	ercspn_l.activation	ercspn_l.fiber_length	intobl_r.activation	intobl_r.fiber_length	intobl_l.activation	intobl_l.fiber_length	extobl_r.activation	extobl_r.fiber_length	extobl_l.activation	extobl_l.fiber_length
      0.06116182	     30.00000000	      0.00000000	      0.00000000	     -0.00000000	    -14.07307731	      4.24867387	     10.57933351	     -0.42554495	      0.94567594	      0.35161549	     42.55863424	     -9.99748150	    -14.34770074	    -43.17779565	    -43.17779565	     15.50606091	     29.29549731	      0.00001318	     52.13915936	      0.00000000	     -9.99811353	   -101.98648811	   -101.98648811	      6.49999992	      0.00000000	     -0.00000000	    -13.64641812	     -4.80901433	     -4.80422907	      0.00000000	     -8.91003344	      0.00000000	     72.06682857	     46.23690339	     -0.00000000	      4.87402477	     -0.00000000	     -8.91003344	     -0.00000000	     72.06682857	     46.23690339	     -0.00000000	      4.87402477	     -0.00000000	      0.00000000	      0.00000000	     -0.00000000	     22.21327373	    -83.19132064	   -250.61160640	     -0.05902021	     -1.78167097	      0.44761702	    274.63762779	     44.56720109	      4.67238791	   -461.52326813	   -461.52326813	    105.87916307	    757.48369174	      0.00000000	     -0.00000000	      0.00000000	     -0.00000000	      0.00000000	      0.00000000	      0.00000000	      0.00000000	     -0.00000000	   -131.27808059	     79.29605267	    268.04043414	      0.00000000	     -0.00000000	      0.00000000	      0.00000000	     -0.00000000	     -0.00000000	      0.00000000	     -0.00000000	     -0.00000000	     -0.00000000	      0.00000000	      0.00000000	     -0.00000000	      0.00000000	      0.29755657	      0.05625247	      0.24707027	      0.09308935	      0.31571284	      0.07251142	      0.20010888	      0.07556353	      0.23750694	      0.06388928	      0.33340312	      0.04102508	      0.19048482	      0.07337634	      0.47384093	      0.24093437	      0.33559978	      0.11709052	      0.23033109	      0.16399839	      0.02719796	      0.44333008	      0.02711337	      0.10822738	      0.02958747	      0.13254605	      0.13984524	      0.08085913	      0.17322812	      0.11183689	      0.22135258	      0.14392373	      0.04566440	      0.08807629	      0.02711337	      0.06635633	      0.02711337	      0.34662569	      0.18479365	      0.10290344	      0.18960263	      0.11656166	      0.25062581	      0.14632690	      0.02711337	      0.08298606	      0.02711337	      0.07580405	      0.19157740	      0.04752320	      0.11547377	      0.01715998	      0.34152105	      0.02005908	      0.20532791	      0.10642086	      0.30743725	      0.08601574	      0.35752281	      0.08770947	      0.31939439	      0.08158083	      0.40055059	      0.05579174	      0.40080979	      0.05934743	      0.54413106	      0.05349344	      0.01000000	      0.03345373	      0.01000000	      0.03088505	      0.01000000	      0.04021920	      0.20283776	      0.08396560	      0.01000000	      0.06750053	      0.01000000	      0.06657800	      0.01000000	      0.08661771	      0.01000000	      0.09846453	      0.01000000	      0.10609007	      0.13148481	      0.13403581	      0.15501253	      0.12591730	      0.02711337	      0.09250381	      0.05045401	      0.08244672	      0.13717825	      0.12634135	      0.07190966	      0.10815925
      0.06134851	     30.00000000	      0.00000000	      0.00000000	     -0.00000000	    -14.06890400	      4.23312486	     10.53255007	     -0.42555602	      0.94534351	      0.35169906	     42.60974917	     -9.98911156	    -14.34681696	    -43.26371015	    -43.26371015	     15.52572202	     29.43692373	      0.00001318	     52.13915936	      0.00000000	     -9.99811353	   -101.98648811	   -101.98648811	      6.49999992	      0.00000000	     -0.00000000	    -13.67098126	     -4.79420872	     -4.75419172	      0.00000000	     -8.91003344	      0.00000000	     72.06682857	     46.23690339	     -0.00000000	      4.87402477	     -0.00000000	     -8.91003344	     -0.00000000	     72.06682857	     46.23690339	     -0.00000000	      4.87402477	     -0.00000000	      0.00000000	      0.00000000	     -0.00000000	     22.49430627	    -83.38213730	   -250.57114661	     -0.05958203	     -1.77959368	      0.44769453	    272.94988605	     45.09825831	      4.79296463	   -458.86880679	   -458.86880679	    104.74948405	    757.58030406	      0.00000000	     -0.00000000	      0.00000000	     -0.00000000	      0.00000000	      0.00000000	      0.00000000	      0.00000000	     -0.00000000	   -131.86190571	     79.31302372	    268.00065050	      0.00000000	     -0.00000000	      0.00000000	      0.00000000	     -0.00000000	     -0.00000000	      0.00000000	     -0.00000000	     -0.00000000	     -0.00000000	      0.00000000	      0.00000000	     -0.00000000	      0.00000000	      0.29687462	      0.05626718	      0.24676967	      0.09311751	      0.31552232	      0.07254566	      0.19956536	      0.07557077	      0.23700816	      0.06390169	      0.33303944	      0.04104422	      0.19027601	      0.07335924	      0.47378581	      0.24091369	      0.33551875	      0.11708664	      0.23012701	      0.16394725	      0.02715461	      0.44324311	      0.02707025	      0.10820219	      0.02953776	      0.13254254	      0.13968374	      0.08087538	      0.17305347	      0.11186840	      0.22121453	      0.14397477	      0.04556990	      0.08805465	      0.02707025	      0.06633621	      0.02707025	      0.34658933	      0.18463907	      0.10294273	      0.18945805	      0.11660519	      0.25040184	      0.14638257	      0.02707025	      0.08295049	      0.02707025	      0.07576714	      0.19168489	      0.04754395	      0.11519933	      0.01716131	      0.34209810	      0.02007772	      0.20544374	      0.10644741	      0.30776836	      0.08607601	      0.35793255	      0.08777145	      0.31975501	      0.08164153	      0.40068359	      0.05578968	      0.40088424	      0.05934045	      0.54477566	      0.05350834	      0.01000000	      0.03343624	      0.01000000	      0.03086765	      0.01000000	      0.04019722	      0.20257653	      0.08388658	      0.01000000	      0.06756116	      0.01000000	      0.06662947	      0.01000000	      0.08665053	      0.01000000	      0.09844642	      0.01000000	      0.10603315	      0.13145716	      0.13403335	      0.15566314	      0.12595188	      0.02707025	      0.09248933	      0.05034548	      0.08241483	      0.13690644	      0.12626417	      0.07187845	      0.10817437
      0.06160571	     30.00000000	      0.00000000	      0.00000000	     -0.00000000	    -14.06306904	      4.21164527	     10.46810974	     -0.42557145	      0.94488617	      0.35181423	     42.67965589	     -9.97741834	    -14.34556514	    -43.38126686	    -43.38126686	     15.55246616	     29.63178797	      0.00001318	     52.13915936	      0.00000000	     -9.99811353	   -101.98648811	   -101.98648811	      6.49999992	      0.00000000	     -0.00000000	    -13.70499935	     -4.77380698	     -4.68526849	      0.00000000	     -8.91003344	      0.00000000	     72.06682857	     46.23690339	     -0.00000000	      4.87402477	     -0.00000000	     -8.91003344	     -0.00000000	     72.06682857	     46.23690339	     -0.00000000	      4.87402477	     -0.00000000	      0.00000000	      0.00000000	     -0.00000000	     22.87780998	    -83.64340642	   -250.51937889	     -0.06036306	     -1.77673602	      0.44781064	    270.65189717	     45.82821105	      4.93742607	   -455.26485589	   -455.26485589	    103.22248298	    757.70407512	      0.00000000	     -0.00000000	      0.00000000	     -0.00000000	      0.00000000	      0.00000000	      0.00000000	      0.00000000	     -0.00000000	   -132.66312293	     79.33029001	    267.94892013	      0.00000000	     -0.00000000	      0.00000000	      0.00000000	     -0.00000000	     -0.00000000	      0.00000000	     -0.00000000	     -0.00000000	     -0.00000000	      0.00000000	      0.00000000	     -0.00000000	      0.00000000	      0.29593529	      0.05628731	      0.24635275	      0.09315611	      0.31525361	      0.07259262	      0.19881888	      0.07558067	      0.23632214	      0.06391871	      0.33253550	      0.04107048	      0.18998821	      0.07333575	      0.47370926	      0.24088524	      0.33540742	      0.11708136	      0.22984505	      0.16387729	      0.02709508	      0.44312424	      0.02701102	      0.10816747	      0.02946951	      0.13253749	      0.13945601	      0.08089743	      0.17280734	      0.11191134	      0.22101716	      0.14404451	      0.04544017	      0.08802474	      0.02701102	      0.06630853	      0.02701102	      0.34653933	      0.18442293	      0.10299655	      0.18925516	      0.11666480	      0.25008591	      0.14645864	      0.02701102	      0.08290179	      0.02701102	      0.07571661	      0.19179354	      0.04757238	      0.11485117	      0.01716357	      0.34287152	      0.02010339	      0.20560126	      0.10648377	      0.30821643	      0.08615846	      0.35848783	      0.08785626	      0.32024303	      0.08172459	      0.40086193	      0.05578681	      0.40098094	      0.05933077	      0.54565673	      0.05352878	      0.01000000	      0.03341224	      0.01000000	      0.03084368	      0.01000000	      0.04016694	      0.20221571	      0.08377777	      0.01000000	      0.06764464	      0.01000000	      0.06670026	      0.01000000	      0.08669597	      0.01000000	      0.09842377	      0.01000000	      0.10595474	      0.13141908	      0.13403005	      0.15655780	      0.12599964	      0.02701102	      0.09246921	      0.05019648	      0.08237079	      0.13652953	      0.12615760	      0.07183426	      0.10819509
      0.06181838	     30.00000000	      0.00000000	      0.00000000	     -0.00000000	    -14.05817011	      4.19383371	     10.41483518	     -0.42558435	      0.94450855	      0.35190947	     42.73701643	     -9.96760784	    -14.34450421	    -43.47777676	    -43.47777676	     15.57428433	     29.79293510	      0.00001318	     52.13915936	      0.00000000	     -9.99811353	   -101.98648811	   -101.98648811	      6.49999992	      0.00000000	     -0.00000000	    -13.73328347	     -4.75693451	     -4.62828719	      0.00000000	     -8.91003344	      0.00000000	     72.06682857	     46.23690339	     -0.00000000	      4.87402477	     -0.00000000	     -8.91003344	     -0.00000000	     72.06682857	     46.23690339	     -0.00000000	      4.87402477	     -0.00000000	      0.00000000	      0.00000000	     -0.00000000	     23.19169215	    -83.85799040	   -250.48011031	     -0.06101505	     -1.77437682	      0.44791496	    268.77555773	     46.43048856	      5.03622847	   -452.33053588	   -452.33053588	    101.95723217	    757.70930538	      0.00000000	     -0.00000000	      0.00000000	     -0.00000000	      0.00000000	      0.00000000	      0.00000000	      0.00000000	     -0.00000000	   -133.32288888	     79.33914998	    267.90888331	      0.00000000	     -0.00000000	      0.00000000	      0.00000000	     -0.00000000	     -0.00000000	      0.00000000	     -0.00000000	     -0.00000000	     -0.00000000	      0.00000000	      0.00000000	     -0.00000000	      0.00000000	      0.29515894	      0.05630383	      0.24600567	      0.09318785	      0.31502609	      0.07263126	      0.19820374	      0.07558881	      0.23575599	      0.06393272	      0.33211645	      0.04109212	      0.18975014	      0.07331639	      0.47364544	      0.24086177	      0.33531565	      0.11707704	      0.22961120	      0.16381986	      0.02704601	      0.44302678	      0.02696220	      0.10813874	      0.02941326	      0.13253315	      0.13926318	      0.08091537	      0.17259906	      0.11194643	      0.22084776	      0.14410167	      0.04533329	      0.08799991	      0.02696220	      0.06628568	      0.02696220	      0.34649805	      0.18424148	      0.10304077	      0.18908422	      0.11671377	      0.24981836	      0.14652100	      0.02696220	      0.08286176	      0.02696220	      0.07567510	      0.19185378	      0.04759577	      0.11459427	      0.01716589	      0.34349253	      0.02012461	      0.20572980	      0.10651364	      0.30858009	      0.08622615	      0.35893918	      0.08792590	      0.32063921	      0.08179277	      0.40100518	      0.05578442	      0.40105584	      0.05932272	      0.54637924	      0.05354560	      0.01000000	      0.03339283	      0.01000000	      0.03082385	      0.01000000	      0.04014190	      0.20191653	      0.08368785	      0.01000000	      0.06771346	      0.01000000	      0.06675869	      0.01000000	      0.08673373	      0.01000000	      0.09840682	      0.01000000	      0.10588990	      0.13138762	      0.13402742	      0.15729670	      0.12603925	      0.02696220	      0.09245242	      0.05007373	      0.08233428	      0.13621575	      0.12606926	      0.07179669	      0.10821212
